<svg xmlns="http://www.w3.org/2000/svg" xmlns:xlink="http://www.w3.org/1999/xlink" xmlns:serif="http://www.serif.com/" viewBox="0 0 24 30" version="1.1" xml:space="preserve" style="" x="0px" y="0px" fill-rule="evenodd" clip-rule="evenodd" stroke-linejoin="round" stroke-miterlimit="2"><g><path d="M16.5,7.25c-0.414,-0 -0.75,-0.336 -0.75,-0.75c0,-0.414 0.336,-0.75 0.75,-0.75l3.5,-0c0.69,-0 1.25,-0.56 1.25,-1.25l0,-0.5c0,-0.69 -0.56,-1.25 -1.25,-1.25l-4,0c-0.414,0 -0.75,-0.336 -0.75,-0.75c-0,-0.414 0.336,-0.75 0.75,-0.75l4,0c1.519,0 2.75,1.231 2.75,2.75l0,0.5c0,1.519 -1.231,2.75 -2.75,2.75l-3.5,0Z"/><path d="M14.749,21.868c-1.216,0.566 -2.571,0.882 -3.999,0.882c-0.515,-0 -1.02,-0.041 -1.512,-0.12c-0.317,-0.987 -0.488,-2.039 -0.488,-3.13c0,-1.827 0.479,-3.544 1.319,-5.03c2.761,1.262 4.681,4.048 4.681,7.28c0,0.04 -0,0.079 -0.001,0.118Zm-3.839,-8.66c0.704,-0.904 1.556,-1.686 2.52,-2.312c2.566,1.333 4.32,4.015 4.32,7.104c0,0.659 -0.08,1.299 -0.23,1.912c-0.399,0.405 -0.833,0.774 -1.298,1.103c-0.264,-3.437 -2.36,-6.365 -5.312,-7.807Zm4.07,-3.138c1.234,-0.528 2.593,-0.82 4.02,-0.82c0.124,-0 0.248,0.002 0.371,0.007c0.564,1.214 0.879,2.567 0.879,3.993c-0,1.535 -0.365,2.985 -1.012,4.268c-0.156,-3.111 -1.811,-5.831 -4.258,-7.448Zm-11.619,9.148c-1.32,-1.631 -2.111,-3.708 -2.111,-5.968c-0,-5.243 4.257,-9.5 9.5,-9.5c1.252,-0 2.447,0.243 3.542,0.683c-6.263,1.053 -11.042,6.506 -11.042,13.067c0,0.582 0.038,1.156 0.111,1.718Zm13.218,-13.468c0.735,0.572 1.384,1.25 1.923,2.01c-6.254,0.262 -11.252,5.422 -11.252,11.74c0,0.929 0.108,1.834 0.313,2.701c-0.816,-0.291 -1.58,-0.69 -2.275,-1.179c-0.35,-1.112 -0.538,-2.295 -0.538,-3.522c-0,-6.485 5.265,-11.75 11.75,-11.75c0.026,0 0.053,0 0.079,0Z"/></g><text x="0" y="39" fill="#000000" font-size="5px" font-weight="bold" font-family="'Helvetica Neue', Helvetica, Arial-Unicode, Arial, Sans-serif">Created by Rolas Design</text><text x="0" y="44" fill="#000000" font-size="5px" font-weight="bold" font-family="'Helvetica Neue', Helvetica, Arial-Unicode, Arial, Sans-serif">from the Noun Project</text></svg>